<svg width="24" height="24" viewBox="0 0 24 24" fill="none" xmlns="http://www.w3.org/2000/svg">
<rect width="24" height="24" fill="white"/>
<circle cx="12" cy="12" r="12" fill="white"/>
<path d="M6.3159 9.69454C6.57192 9.69454 6.82381 9.66538 7.06332 9.61122C6.92292 9.40294 6.76187 9.20298 6.58431 9.02386L6.46043 8.89889C6.35719 8.79475 6.22918 8.72809 6.10117 8.71143C5.60977 8.64061 5.16793 8.41983 4.81693 8.06575C4.3916 7.63668 4.15623 7.06181 4.16036 6.45362C4.16036 5.84543 4.39986 5.27473 4.82519 4.84566C5.24639 4.42076 5.81211 4.19164 6.41087 4.19164C6.98486 4.19164 7.53407 4.40826 7.95114 4.804C8.32278 5.15392 8.55816 5.60798 8.63661 6.1162C8.66139 6.27033 8.72333 6.4078 8.82244 6.50777L8.85134 6.53693C9.06607 6.75355 9.30145 6.94101 9.55334 7.0993C9.60702 6.85769 9.63593 6.60775 9.63593 6.34948C9.63593 4.49991 8.14935 3.00442 6.32003 3.00442C4.48245 3.00025 3 4.49991 3 6.34531C3 8.19488 4.48245 9.69454 6.3159 9.69454Z" fill="#2B79C2"/>
<path d="M15.5657 17.0509L15.5946 17.0801C15.7846 17.2717 15.9043 17.5258 15.9456 17.7966C15.9993 18.1548 16.1686 18.5006 16.4535 18.7714C17.106 19.3879 18.1424 19.3754 18.7742 18.738C19.4308 18.0799 19.4349 17.0093 18.7784 16.3469C18.51 16.0761 18.1755 15.9179 17.8245 15.8679C17.5643 15.8304 17.3207 15.7054 17.1349 15.5138L17.0069 15.3888C16.7632 15.143 16.5485 14.8681 16.3668 14.5765C15.9208 13.8558 15.6772 13.0185 15.6772 12.1562V11.8438C15.6772 10.9815 15.9208 10.1442 16.3668 9.41936C16.5485 9.12776 16.7591 8.85699 17.0069 8.61121L17.1018 8.5154C17.3042 8.31128 17.5602 8.16965 17.8451 8.12799C18.2003 8.07383 18.543 7.90304 18.8114 7.61561C19.4226 6.95743 19.4102 5.91183 18.7784 5.27032C18.1259 4.60797 17.0605 4.6038 16.4081 5.26615C16.148 5.52859 15.991 5.85352 15.9374 6.1951C15.8919 6.47837 15.7598 6.74498 15.5574 6.94909C15.2767 7.23236 14.9669 7.47397 14.6283 7.66976C14.4549 7.7739 14.2732 7.86555 14.0833 7.94053C13.5382 8.16965 12.9518 8.29045 12.3489 8.29045H11.6304C10.8252 8.29045 10.0406 8.07383 9.35511 7.66976C9.02063 7.47397 8.70679 7.23236 8.426 6.94909L8.40948 6.91577C8.21953 6.72415 8.09977 6.47004 8.05848 6.20343C8.0048 5.84518 7.83549 5.49943 7.55057 5.22866C6.89812 4.60797 5.86578 4.62463 5.22985 5.25782C4.57328 5.916 4.56915 6.98659 5.22572 7.64893C5.49413 7.9197 5.82861 8.078 6.17961 8.12799C6.43976 8.16548 6.68339 8.29045 6.86922 8.48207L6.99723 8.61121C7.24086 8.85699 7.45559 9.13192 7.63728 9.41936C8.08326 10.14 8.32689 10.9773 8.32689 11.8438C8.32689 12.552 8.18649 13.2435 7.92634 13.8808C7.83136 14.1141 7.71987 14.3391 7.59186 14.5557C7.36887 14.9347 7.09633 15.2888 6.7825 15.6096L6.75772 15.6221C6.62558 15.7554 6.45215 15.8387 6.26633 15.8554C5.86991 15.8887 5.48174 16.0637 5.18856 16.3802C4.57741 17.0384 4.5898 18.084 5.22159 18.7255C5.87404 19.3879 6.93942 19.392 7.59186 18.7297C7.88092 18.4381 8.04196 18.0674 8.075 17.6883C8.09152 17.4967 8.1741 17.3217 8.30624 17.1842L8.43838 17.0509C8.71918 16.7677 9.02889 16.526 9.3675 16.3303C10.053 15.9262 10.8376 15.7096 11.6428 15.7096H12.3613C13.1665 15.7096 13.9511 15.9262 14.6366 16.3303C14.9752 16.526 15.2849 16.7677 15.5657 17.0509ZM12.002 13.4559C11.2051 13.4559 10.5568 12.8019 10.5568 11.9979C10.5568 11.1939 11.2051 10.5399 12.002 10.5399C12.799 10.5399 13.4473 11.1939 13.4473 11.9979C13.4473 12.8019 12.799 13.4559 12.002 13.4559Z" fill="#3B4652"/>
<path d="M15.1567 6.53252C15.2724 6.41588 15.3467 6.26591 15.3715 6.09928C15.4458 5.62023 15.6646 5.19116 16.0033 4.84957C16.4286 4.4205 16.9943 4.18306 17.5931 4.18306C18.196 4.18306 18.7658 4.4205 19.1911 4.85374C19.6 5.27031 19.8312 5.82851 19.8395 6.42004C19.8477 7.01574 19.633 7.57811 19.2324 8.00717C18.8814 8.38209 18.4313 8.61953 17.9276 8.69868C17.7789 8.72368 17.6261 8.80282 17.5064 8.92363L17.4114 9.01944C17.2338 9.19857 17.0728 9.39435 16.9324 9.6068C17.1719 9.66096 17.4238 9.69012 17.6798 9.69012C19.5132 9.69012 20.9957 8.19047 20.9957 6.34506C20.9957 4.49549 19.5091 3 17.6798 3C15.8463 3 14.3639 4.49965 14.3639 6.34506C14.3639 6.60333 14.3928 6.85327 14.4465 7.09489C14.7066 6.93659 14.9461 6.74913 15.1567 6.53252Z" fill="#2B79C2"/>
<path d="M8.84721 17.4633L8.71507 17.5966C8.67791 17.6341 8.65726 17.6841 8.649 17.7424C8.60358 18.2715 8.37233 18.7714 7.99656 19.1463C7.57123 19.5753 7.00551 19.8128 6.40674 19.8128C5.79972 19.8128 5.234 19.5753 4.80867 19.1421C4.39986 18.7214 4.16862 18.1673 4.16036 17.5758C4.1521 16.9801 4.36683 16.4177 4.76738 15.9887C5.15141 15.5804 5.66758 15.3263 6.22092 15.2805C6.26635 15.2763 6.3159 15.2555 6.34893 15.218L6.36545 15.2014C6.60908 14.9556 6.82794 14.6806 7.01376 14.3849C6.79078 14.3349 6.5554 14.3099 6.3159 14.3099C4.48245 14.3099 3 15.8095 3 17.6549C3 19.5004 4.48658 21 6.3159 21C8.14935 21 9.6318 19.5004 9.6318 17.6549C9.6318 17.3967 9.60289 17.1467 9.54921 16.9051C9.29732 17.0593 9.06194 17.2467 8.84721 17.4633Z" fill="#2B79C2"/>
<path d="M17.6882 14.3016C17.4322 14.3016 17.1803 14.3307 16.9408 14.389C17.0812 14.5973 17.2422 14.7973 17.4198 14.9764L17.5437 15.1014C17.6469 15.2055 17.7749 15.2722 17.9029 15.2888C18.3943 15.3555 18.8362 15.5804 19.1872 15.9345C19.6125 16.3636 19.8479 16.9384 19.8437 17.5466C19.8437 18.1548 19.6042 18.7255 19.1789 19.1546C18.7577 19.5753 18.192 19.8086 17.5932 19.8086C17.3042 19.8086 17.0234 19.7545 16.7632 19.6503C16.5031 19.5462 16.2636 19.392 16.053 19.1963C15.6813 18.8422 15.4459 18.3923 15.3675 17.8841C15.3427 17.7299 15.2808 17.5966 15.1817 17.4925L15.1527 17.4633C14.938 17.2467 14.7026 17.0593 14.4508 16.901C14.3971 17.1426 14.3682 17.3925 14.3682 17.6508C14.3682 19.5004 15.8547 20.9958 17.6841 20.9958C19.5175 20.9958 21 19.4962 21 17.6508C21 15.8054 19.5216 14.3016 17.6882 14.3016Z" fill="#2B79C2"/>
</svg>
