<svg width="40" height="40" viewBox="0 0 40 40" fill="none" xmlns="http://www.w3.org/2000/svg">
<g clip-path="url(#clip0_51_189)" filter="url(#filter0_d_51_189)">
<path d="M36 16.0977C36 7.26166 28.836 0.0976562 20 0.0976562C11.164 0.0976562 4 7.26166 4 16.0977C4 24.0843 9.85067 30.703 17.5 31.903V20.723H13.4373V16.0963H17.5V12.5737C17.5 8.56432 19.8893 6.34832 23.544 6.34832C25.2933 6.34832 27.1253 6.66166 27.1253 6.66166V10.599H25.1067C23.1187 10.599 22.4987 11.8323 22.4987 13.0977V16.0977H26.936L26.2267 20.7243H22.4987V31.9043C30.1493 30.703 36 24.083 36 16.0977Z" fill="white"/>
</g>
<defs>
<filter id="filter0_d_51_189" x="0" y="0" width="40" height="40" filterUnits="userSpaceOnUse" color-interpolation-filters="sRGB">
<feFlood flood-opacity="0" result="BackgroundImageFix"/>
<feColorMatrix in="SourceAlpha" type="matrix" values="0 0 0 0 0 0 0 0 0 0 0 0 0 0 0 0 0 0 127 0" result="hardAlpha"/>
<feOffset dy="4"/>
<feGaussianBlur stdDeviation="2"/>
<feComposite in2="hardAlpha" operator="out"/>
<feColorMatrix type="matrix" values="0 0 0 0 0 0 0 0 0 0 0 0 0 0 0 0 0 0 0.25 0"/>
<feBlend mode="normal" in2="BackgroundImageFix" result="effect1_dropShadow_51_189"/>
<feBlend mode="normal" in="SourceGraphic" in2="effect1_dropShadow_51_189" result="shape"/>
</filter>
<clipPath id="clip0_51_189">
<rect width="32" height="32" fill="white" transform="translate(4)"/>
</clipPath>
</defs>
</svg>
