<svg width="40" height="40" viewBox="0 0 40 40" fill="none" xmlns="http://www.w3.org/2000/svg">
<g clip-path="url(#clip0_51_191)" filter="url(#filter0_d_51_191)">
<path d="M20 0C15.6533 0 15.1107 0.02 13.404 0.096C11.7 0.176 10.54 0.444 9.52 0.84C8.468 1.248 7.57467 1.796 6.68533 2.68533C5.796 3.57467 5.24667 4.46667 4.84 5.52C4.444 6.54 4.17467 7.7 4.096 9.404C4.016 11.1107 4 11.6533 4 16C4 20.3467 4.02 20.8893 4.096 22.596C4.176 24.2987 4.444 25.46 4.84 26.48C5.248 27.5307 5.796 28.4253 6.68533 29.3147C7.57467 30.2027 8.46667 30.7533 9.52 31.16C10.5413 31.5547 11.7013 31.8253 13.404 31.904C15.1107 31.984 15.6533 32 20 32C24.3467 32 24.8893 31.98 26.596 31.904C28.2987 31.824 29.46 31.5547 30.48 31.16C31.5307 30.752 32.4253 30.2027 33.3147 29.3147C34.2027 28.4253 34.7533 27.5347 35.16 26.48C35.5547 25.46 35.8253 24.2987 35.904 22.596C35.984 20.8893 36 20.3467 36 16C36 11.6533 35.98 11.1107 35.904 9.404C35.824 7.70133 35.5547 6.53867 35.16 5.52C34.752 4.468 34.2027 3.57467 33.3147 2.68533C32.4253 1.796 31.5347 1.24667 30.48 0.84C29.46 0.444 28.2987 0.174667 26.596 0.096C24.8893 0.016 24.3467 0 20 0ZM20 2.88C24.2707 2.88 24.78 2.90133 26.4667 2.97467C28.0267 3.048 28.8733 3.30667 29.436 3.528C30.1853 3.81733 30.716 4.164 31.2787 4.72267C31.8373 5.28267 32.184 5.81467 32.4733 6.564C32.692 7.12667 32.9533 7.97333 33.024 9.53333C33.1 11.2213 33.1173 11.728 33.1173 16C33.1173 20.272 33.0973 20.78 33.0187 22.4667C32.9373 24.0267 32.6773 24.8733 32.4573 25.436C32.1587 26.1853 31.8187 26.716 31.2587 27.2787C30.7 27.8373 30.16 28.184 29.4187 28.4733C28.8587 28.692 27.9987 28.9533 26.4387 29.024C24.74 29.1 24.24 29.1173 19.96 29.1173C15.6787 29.1173 15.1787 29.0973 13.4813 29.0187C11.92 28.9373 11.06 28.6773 10.5 28.4573C9.74133 28.1587 9.22 27.8187 8.66133 27.2587C8.1 26.7 7.74133 26.16 7.46133 25.4187C7.24133 24.8587 6.98267 23.9987 6.90133 22.4387C6.84133 20.7587 6.82 20.24 6.82 15.98C6.82 11.7187 6.84133 11.1987 6.90133 9.49867C6.98267 7.93867 7.24133 7.08 7.46133 6.52C7.74133 5.76 8.1 5.24 8.66133 4.67867C9.22 4.12 9.74133 3.76 10.5 3.48133C11.06 3.26 11.9013 3 13.4613 2.92C15.1613 2.86 15.6613 2.84 19.94 2.84L20 2.88ZM20 7.784C15.46 7.784 11.784 11.464 11.784 16C11.784 20.54 15.464 24.216 20 24.216C24.54 24.216 28.216 20.536 28.216 16C28.216 11.46 24.536 7.784 20 7.784ZM20 21.3333C17.0533 21.3333 14.6667 18.9467 14.6667 16C14.6667 13.0533 17.0533 10.6667 20 10.6667C22.9467 10.6667 25.3333 13.0533 25.3333 16C25.3333 18.9467 22.9467 21.3333 20 21.3333ZM30.4613 7.46C30.4613 8.52 29.6 9.38 28.5413 9.38C27.4813 9.38 26.6213 8.51867 26.6213 7.46C26.6213 6.40133 27.4827 5.54133 28.5413 5.54133C29.5987 5.54 30.4613 6.40133 30.4613 7.46Z" fill="white"/>
</g>
<defs>
<filter id="filter0_d_51_191" x="0" y="0" width="40" height="40" filterUnits="userSpaceOnUse" color-interpolation-filters="sRGB">
<feFlood flood-opacity="0" result="BackgroundImageFix"/>
<feColorMatrix in="SourceAlpha" type="matrix" values="0 0 0 0 0 0 0 0 0 0 0 0 0 0 0 0 0 0 127 0" result="hardAlpha"/>
<feOffset dy="4"/>
<feGaussianBlur stdDeviation="2"/>
<feComposite in2="hardAlpha" operator="out"/>
<feColorMatrix type="matrix" values="0 0 0 0 0 0 0 0 0 0 0 0 0 0 0 0 0 0 0.25 0"/>
<feBlend mode="normal" in2="BackgroundImageFix" result="effect1_dropShadow_51_191"/>
<feBlend mode="normal" in="SourceGraphic" in2="effect1_dropShadow_51_191" result="shape"/>
</filter>
<clipPath id="clip0_51_191">
<rect width="32" height="32" fill="white" transform="translate(4)"/>
</clipPath>
</defs>
</svg>
