<svg width="52" height="52" viewBox="0 0 52 52" fill="none" xmlns="http://www.w3.org/2000/svg">
<path d="M48 14C48 12.8954 48.8954 12 50 12C51.1046 12 52 12.8954 52 14C52 15.1046 51.1046 16 50 16C48.8954 16 48 15.1046 48 14Z" fill="#0CEBF2"/>
<path d="M48 2C48 0.895431 48.8954 -2.7141e-07 50 -1.74846e-07C51.1046 -7.8281e-08 52 0.895432 52 2C52 3.10457 51.1046 4 50 4C48.8954 4 48 3.10457 48 2Z" fill="#0CEBF2"/>
<path d="M36 38C36 36.8954 36.8954 36 38 36C39.1046 36 40 36.8954 40 38C40 39.1046 39.1046 40 38 40C36.8954 40 36 39.1046 36 38Z" fill="#0CEBF2"/>
<path d="M36 26C36 24.8954 36.8954 24 38 24C39.1046 24 40 24.8954 40 26C40 27.1046 39.1046 28 38 28C36.8954 28 36 27.1046 36 26Z" fill="#0CEBF2"/>
<path d="M36 14C36 12.8954 36.8954 12 38 12C39.1046 12 40 12.8954 40 14C40 15.1046 39.1046 16 38 16C36.8954 16 36 15.1046 36 14Z" fill="#0CEBF2"/>
<path d="M36 2C36 0.89543 36.8954 -1.32048e-06 38 -1.22392e-06C39.1046 -1.12735e-06 40 0.89543 40 2C40 3.10457 39.1046 4 38 4C36.8954 4 36 3.10457 36 2Z" fill="#0CEBF2"/>
<path d="M24 38C24 36.8954 24.8954 36 26 36C27.1046 36 28 36.8954 28 38C28 39.1046 27.1046 40 26 40C24.8954 40 24 39.1046 24 38Z" fill="#0CEBF2"/>
<path d="M24 26C24 24.8954 24.8954 24 26 24C27.1046 24 28 24.8954 28 26C28 27.1046 27.1046 28 26 28C24.8954 28 24 27.1046 24 26Z" fill="#0CEBF2"/>
<path d="M24 14C24 12.8954 24.8954 12 26 12C27.1046 12 28 12.8954 28 14C28 15.1046 27.1046 16 26 16C24.8954 16 24 15.1046 24 14Z" fill="#0CEBF2"/>
<path d="M24 2C24 0.895429 24.8954 -2.36956e-06 26 -2.27299e-06C27.1046 -2.17643e-06 28 0.895429 28 2C28 3.10457 27.1046 4 26 4C24.8954 4 24 3.10457 24 2Z" fill="#0CEBF2"/>
<path d="M12 50C12 48.8954 12.8954 48 14 48C15.1046 48 16 48.8954 16 50C16 51.1046 15.1046 52 14 52C12.8954 52 12 51.1046 12 50Z" fill="#0CEBF2"/>
<path d="M12 38C12 36.8954 12.8954 36 14 36C15.1046 36 16 36.8954 16 38C16 39.1046 15.1046 40 14 40C12.8954 40 12 39.1046 12 38Z" fill="#0CEBF2"/>
<path d="M12 26C12 24.8954 12.8954 24 14 24C15.1046 24 16 24.8954 16 26C16 27.1046 15.1046 28 14 28C12.8954 28 12 27.1046 12 26Z" fill="#0CEBF2"/>
<path d="M12 14C12 12.8954 12.8954 12 14 12C15.1046 12 16 12.8954 16 14C16 15.1046 15.1046 16 14 16C12.8954 16 12 15.1046 12 14Z" fill="#0CEBF2"/>
<path d="M12 2C12 0.895428 12.8954 -3.41863e-06 14 -3.32207e-06C15.1046 -3.2255e-06 16 0.895428 16 2C16 3.10457 15.1046 4 14 4C12.8954 4 12 3.10456 12 2Z" fill="#0CEBF2"/>
<path d="M1.74846e-07 50C2.7141e-07 48.8954 0.895432 48 2 48C3.10457 48 4 48.8954 4 50C4 51.1046 3.10457 52 2 52C0.895432 52 7.8281e-08 51.1046 1.74846e-07 50Z" fill="#0CEBF2"/>
<path d="M1.22392e-06 38C1.32048e-06 36.8954 0.895433 36 2 36C3.10457 36 4 36.8954 4 38C4 39.1046 3.10457 40 2 40C0.895433 40 1.12735e-06 39.1046 1.22392e-06 38Z" fill="#0CEBF2"/>
<path d="M2.27299e-06 26C2.36956e-06 24.8954 0.895434 24 2 24C3.10457 24 4 24.8954 4 26C4 27.1046 3.10457 28 2 28C0.895434 28 2.17643e-06 27.1046 2.27299e-06 26Z" fill="#0CEBF2"/>
<path d="M3.32207e-06 14C3.41863e-06 12.8954 0.895435 12 2 12C3.10457 12 4 12.8954 4 14C4 15.1046 3.10457 16 2 16C0.895435 16 3.2255e-06 15.1046 3.32207e-06 14Z" fill="#0CEBF2"/>
<path d="M4.37114e-06 2C4.4677e-06 0.895427 0.895436 -4.4677e-06 2 -4.37114e-06C3.10457 -4.27457e-06 4 0.895427 4 2C4 3.10456 3.10457 4 2 4C0.895436 4 4.27457e-06 3.10456 4.37114e-06 2Z" fill="#0CEBF2"/>
</svg>
