<svg width="24" height="24" viewBox="0 0 24 24" fill="none" xmlns="http://www.w3.org/2000/svg">
<path d="M11.985 19.1333C13.435 19.1333 14.65 18.5889 15.63 17.5C16.61 16.4111 17.1 15.0611 17.1 13.45C17.1 11.8389 16.61 10.4944 15.63 9.41667C14.65 8.33889 13.435 7.8 11.985 7.8C10.535 7.8 9.325 8.33889 8.355 9.41667C7.385 10.4944 6.9 11.8389 6.9 13.45C6.9 15.0611 7.385 16.4111 8.355 17.5C9.325 18.5889 10.535 19.1333 11.985 19.1333ZM11.985 17.1333C11.035 17.1333 10.25 16.7833 9.63 16.0833C9.01 15.3833 8.7 14.5056 8.7 13.45C8.7 12.3944 9.01 11.5222 9.63 10.8333C10.25 10.1444 11.035 9.8 11.985 9.8C12.935 9.8 13.725 10.1444 14.355 10.8333C14.985 11.5222 15.3 12.3944 15.3 13.45C15.3 14.5056 14.985 15.3833 14.355 16.0833C13.725 16.7833 12.935 17.1333 11.985 17.1333ZM1.8 24C1.32 24 0.9 23.8 0.54 23.4C0.18 23 0 22.5333 0 22V4.9C0 4.38889 0.18 3.92778 0.54 3.51667C0.9 3.10556 1.32 2.9 1.8 2.9H6.21L8.4 0H15.6L17.79 2.9H22.2C22.66 2.9 23.075 3.10556 23.445 3.51667C23.815 3.92778 24 4.38889 24 4.9V22C24 22.5333 23.815 23 23.445 23.4C23.075 23.8 22.66 24 22.2 24H1.8ZM22.2 22V4.9H16.95L14.76 2H9.24L7.05 4.9H1.8V22H22.2Z" fill="url(#paint0_linear_50_16)"/>
<defs>
<linearGradient id="paint0_linear_50_16" x1="12" y1="0" x2="12" y2="24" gradientUnits="userSpaceOnUse">
<stop stop-color="#00EAFF"/>
<stop offset="1" stop-color="#0CE3F2"/>
</linearGradient>
</defs>
</svg>
