<svg width="24" height="24" viewBox="0 0 24 24" fill="none" xmlns="http://www.w3.org/2000/svg">
<path d="M11.9875 17.35C13.1958 17.35 14.2083 16.9417 15.025 16.125C15.8417 15.3083 16.25 14.2958 16.25 13.0875C16.25 11.8792 15.8417 10.8708 15.025 10.0625C14.2083 9.25417 13.1958 8.85 11.9875 8.85C10.7792 8.85 9.77083 9.25417 8.9625 10.0625C8.15417 10.8708 7.75 11.8792 7.75 13.0875C7.75 14.2958 8.15417 15.3083 8.9625 16.125C9.77083 16.9417 10.7792 17.35 11.9875 17.35ZM11.9875 15.85C11.1958 15.85 10.5417 15.5875 10.025 15.0625C9.50833 14.5375 9.25 13.8792 9.25 13.0875C9.25 12.2958 9.50833 11.6417 10.025 11.125C10.5417 10.6083 11.1958 10.35 11.9875 10.35C12.7792 10.35 13.4375 10.6083 13.9625 11.125C14.4875 11.6417 14.75 12.2958 14.75 13.0875C14.75 13.8792 14.4875 14.5375 13.9625 15.0625C13.4375 15.5875 12.7792 15.85 11.9875 15.85ZM3.5 21C3.1 21 2.75 20.85 2.45 20.55C2.15 20.25 2 19.9 2 19.5V6.675C2 6.29167 2.15 5.94583 2.45 5.6375C2.75 5.32917 3.1 5.175 3.5 5.175H7.175L9 3H15L16.825 5.175H20.5C20.8833 5.175 21.2292 5.32917 21.5375 5.6375C21.8458 5.94583 22 6.29167 22 6.675V19.5C22 19.9 21.8458 20.25 21.5375 20.55C21.2292 20.85 20.8833 21 20.5 21H3.5ZM20.5 19.5V6.675H16.125L14.3 4.5H9.7L7.875 6.675H3.5V19.5H20.5Z" fill="#00FFFF"/>
</svg>
