<svg width="24" height="23" viewBox="0 0 24 23" fill="none" xmlns="http://www.w3.org/2000/svg">
<path d="M11.9875 16.6271C13.1958 16.6271 14.2083 16.2358 15.025 15.4531C15.8417 14.6705 16.25 13.7002 16.25 12.5422C16.25 11.3842 15.8417 10.4179 15.025 9.64323C14.2083 8.86858 13.1958 8.48125 11.9875 8.48125C10.7792 8.48125 9.77083 8.86858 8.9625 9.64323C8.15417 10.4179 7.75 11.3842 7.75 12.5422C7.75 13.7002 8.15417 14.6705 8.9625 15.4531C9.77083 16.2358 10.7792 16.6271 11.9875 16.6271ZM11.9875 15.1896C11.1958 15.1896 10.5417 14.938 10.025 14.4349C9.50833 13.9318 9.25 13.3009 9.25 12.5422C9.25 11.7835 9.50833 11.1566 10.025 10.6615C10.5417 10.1663 11.1958 9.91875 11.9875 9.91875C12.7792 9.91875 13.4375 10.1663 13.9625 10.6615C14.4875 11.1566 14.75 11.7835 14.75 12.5422C14.75 13.3009 14.4875 13.9318 13.9625 14.4349C13.4375 14.938 12.7792 15.1896 11.9875 15.1896ZM3.5 20.125C3.1 20.125 2.75 19.9812 2.45 19.6937C2.15 19.4062 2 19.0708 2 18.6875V6.39687C2 6.02951 2.15 5.69809 2.45 5.4026C2.75 5.10712 3.1 4.95937 3.5 4.95937H7.175L9 2.875H15L16.825 4.95937H20.5C20.8833 4.95937 21.2292 5.10712 21.5375 5.4026C21.8458 5.69809 22 6.02951 22 6.39687V18.6875C22 19.0708 21.8458 19.4062 21.5375 19.6937C21.2292 19.9812 20.8833 20.125 20.5 20.125H3.5ZM20.5 18.6875V6.39687H16.125L14.3 4.3125H9.7L7.875 6.39687H3.5V18.6875H20.5Z" fill="#00FFFF"/>
</svg>
