<svg width="24" height="24" viewBox="0 0 24 24" fill="none" xmlns="http://www.w3.org/2000/svg">
<path d="M12 23.7333C9.66667 23.0703 7.75 21.531 6.25 19.1156C4.75 16.7002 4 14.0527 4 11.1732V4.41L12 1L20 4.41V11.1732C20 14.0527 19.25 16.7002 17.75 19.1156C16.25 21.531 14.3333 23.0703 12 23.7333ZM12 21.9715C13.9167 21.2516 15.4792 19.8923 16.6875 17.8937C17.8958 15.8951 18.5 13.6549 18.5 11.1732V5.6035L12 2.81866L5.5 5.6035V11.1732C5.5 13.6549 6.10417 15.8951 7.3125 17.8937C8.52083 19.8923 10.0833 21.2516 12 21.9715Z" fill="#00FFFF"/>
</svg>
