<svg width="24" height="24" viewBox="0 0 27 24" fill="none" xmlns="http://www.w3.org/2000/svg">
<path d="M12.3187 15.55L18.675 9.9L17.0719 8.475L12.3187 12.7L9.95625 10.6L8.35312 12.025L12.3187 15.55ZM13.5 22C10.8937 21.4167 8.74219 20.0875 7.04531 18.0125C5.34844 15.9375 4.5 13.6333 4.5 11.1V5L13.5 2L22.5 5V11.1C22.5 13.6333 21.6516 15.9375 19.9547 18.0125C18.2578 20.0875 16.1062 21.4167 13.5 22ZM13.5 19.9C15.45 19.35 17.0625 18.25 18.3375 16.6C19.6125 14.95 20.25 13.1167 20.25 11.1V6.375L13.5 4.125L6.75 6.375V11.1C6.75 13.1167 7.3875 14.95 8.6625 16.6C9.9375 18.25 11.55 19.35 13.5 19.9Z" fill="#00FFFF"/>
</svg>
