<svg width="24" height="24" viewBox="0 0 24 24" fill="none" xmlns="http://www.w3.org/2000/svg">
<path d="M16.7 15.5L21 11.8L23.125 11.975L18.4 16.025L19.825 22.175L17.975 21.05L16.7 15.5ZM14.375 8.275L12.95 4.925L13.75 3L16.05 8.425L14.375 8.275ZM6.575 18.875L10.5 16.525L14.425 18.9L13.375 14.45L16.825 11.45L12.275 11.05L10.5 6.85L8.725 11.025L4.175 11.425L7.625 14.425L6.575 18.875ZM4.325 22L5.95 14.975L0.5 10.25L7.7 9.625L10.5 3L13.3 9.625L20.5 10.25L15.05 14.975L16.675 22L10.5 18.275L4.325 22Z" fill="#00FFFF"/>
</svg>
