<svg width="24" height="24" viewBox="0 0 24 24" fill="none" xmlns="http://www.w3.org/2000/svg">
<g clip-path="url(#clip0_50_17)">
<path d="M12 24C10.34 24 8.78 23.685 7.32 23.055C5.86 22.425 4.59 21.57 3.51 20.49C2.43 19.41 1.575 18.14 0.945 16.68C0.315 15.22 0 13.66 0 12C0 10.34 0.315 8.78 0.945 7.32C1.575 5.86 2.43 4.59 3.51 3.51C4.59 2.43 5.86 1.575 7.32 0.945C8.78 0.315 10.34 0 12 0C13.66 0 15.22 0.315 16.68 0.945C18.14 1.575 19.41 2.43 20.49 3.51C21.57 4.59 22.425 5.86 23.055 7.32C23.685 8.78 24 10.34 24 12C24 13.66 23.685 15.22 23.055 16.68C22.425 18.14 21.57 19.41 20.49 20.49C19.41 21.57 18.14 22.425 16.68 23.055C15.22 23.685 13.66 24 12 24ZM12 22.2C13.26 22.2 14.445 21.995 15.555 21.585C16.665 21.175 17.67 20.59 18.57 19.83L16.41 17.7C15.79 18.16 15.11 18.525 14.37 18.795C13.63 19.065 12.84 19.2 12 19.2C10 19.2 8.3 18.5 6.9 17.1C5.5 15.7 4.8 14 4.8 12C4.8 10 5.5 8.3 6.9 6.9C8.3 5.5 10 4.8 12 4.8C14 4.8 15.7 5.5 17.1 6.9C18.5 8.3 19.2 10 19.2 12C19.2 12.84 19.065 13.63 18.795 14.37C18.525 15.11 18.16 15.79 17.7 16.41L19.83 18.54C20.57 17.64 21.15 16.64 21.57 15.54C21.99 14.44 22.2 13.26 22.2 12C22.2 9.16 21.21 6.75 19.23 4.77C17.25 2.79 14.84 1.8 12 1.8C9.16 1.8 6.75 2.79 4.77 4.77C2.79 6.75 1.8 9.16 1.8 12C1.8 14.84 2.79 17.25 4.77 19.23C6.75 21.21 9.16 22.2 12 22.2ZM12 17.4C12.58 17.4 13.135 17.315 13.665 17.145C14.195 16.975 14.68 16.73 15.12 16.41L12.9 14.22C12.76 14.28 12.615 14.325 12.465 14.355C12.315 14.385 12.16 14.4 12 14.4C11.34 14.4 10.775 14.165 10.305 13.695C9.835 13.225 9.6 12.66 9.6 12C9.6 11.34 9.835 10.775 10.305 10.305C10.775 9.835 11.34 9.6 12 9.6C12.66 9.6 13.225 9.835 13.695 10.305C14.165 10.775 14.4 11.34 14.4 12C14.4 12.16 14.38 12.32 14.34 12.48C14.3 12.64 14.25 12.8 14.19 12.96L16.41 15.12C16.73 14.68 16.975 14.195 17.145 13.665C17.315 13.135 17.4 12.58 17.4 12C17.4 10.5 16.875 9.225 15.825 8.175C14.775 7.125 13.5 6.6 12 6.6C10.5 6.6 9.225 7.125 8.175 8.175C7.125 9.225 6.6 10.5 6.6 12C6.6 13.5 7.125 14.775 8.175 15.825C9.225 16.875 10.5 17.4 12 17.4Z" fill="url(#paint0_linear_50_17)"/>
</g>
<defs>
<linearGradient id="paint0_linear_50_17" x1="12" y1="0" x2="12" y2="24" gradientUnits="userSpaceOnUse">
<stop stop-color="#00EAFF"/>
<stop offset="1" stop-color="#0CE3F2"/>
</linearGradient>
<clipPath id="clip0_50_17">
<rect width="24" height="24" fill="white"/>
</clipPath>
</defs>
</svg>
