<svg width="24" height="24" viewBox="0 0 24 24" fill="none" xmlns="http://www.w3.org/2000/svg">
<g clip-path="url(#clip0_56_187)">
<path d="M10.175 15.875C10.5583 16.2584 11.1125 16.4375 11.8375 16.4125C12.5625 16.3875 13.0917 16.1167 13.425 15.6L18.825 7.12502L10.45 12.6C9.95 12.9334 9.68333 13.4667 9.65 14.2C9.61667 14.9334 9.79167 15.4917 10.175 15.875ZM11.95 4.02502C12.9 4.02502 13.8917 4.17919 14.925 4.48752C15.9583 4.79586 16.95 5.32502 17.9 6.07502L16.6 7.00002C15.85 6.50002 15.0458 6.12919 14.1875 5.88752C13.3292 5.64586 12.5832 5.52502 11.9495 5.52502C9.60825 5.52502 7.61471 6.36015 5.96883 8.0304C4.32294 9.70067 3.5 11.7237 3.5 14.0996C3.5 14.8499 3.60417 15.6084 3.8125 16.375C4.02083 17.1417 4.31667 17.85 4.7 18.5H19.175C19.5417 17.9 19.8333 17.2 20.05 16.4C20.2667 15.6 20.375 14.8167 20.375 14.05C20.375 13.35 20.2708 12.5959 20.0625 11.7875C19.8542 10.9792 19.4833 10.2334 18.95 9.55002L19.925 8.25002C20.5583 9.18336 21.0333 10.1209 21.35 11.0625C21.6667 12.0042 21.8417 12.95 21.875 13.9C21.9083 14.9 21.8083 15.8417 21.575 16.725C21.3417 17.6084 21 18.425 20.55 19.175C20.35 19.5584 20.1375 19.7917 19.9125 19.875C19.6875 19.9584 19.4083 20 19.075 20H4.8C4.51667 20 4.2375 19.9292 3.9625 19.7875C3.6875 19.6459 3.48333 19.4417 3.35 19.175C2.91667 18.375 2.58333 17.5625 2.35 16.7375C2.11667 15.9125 2 15.0334 2 14.1C2 12.7167 2.2625 11.4125 2.7875 10.1875C3.3125 8.96252 4.025 7.89586 4.925 6.98752C5.825 6.07919 6.88067 5.35836 8.092 4.82502C9.30333 4.29169 10.5893 4.02502 11.95 4.02502Z" fill="#00FFFF"/>
</g>
<defs>
<clipPath id="clip0_56_187">
<rect width="24" height="24" fill="white"/>
</clipPath>
</defs>
</svg>
