<svg width="24" height="24" viewBox="0 0 24 24" fill="none" xmlns="http://www.w3.org/2000/svg">
<path d="M10.175 16.4695C10.5583 16.9052 11.1125 17.1089 11.8375 17.0804C12.5625 17.052 13.0917 16.7442 13.425 16.1569L18.825 6.52366L10.45 12.7469C9.95 13.1258 9.68333 13.732 9.65 14.5656C9.61667 15.3991 9.79167 16.0338 10.175 16.4695ZM11.95 3C12.9 3 13.8917 3.17524 14.925 3.52571C15.9583 3.87618 16.95 4.47767 17.9 5.33016L16.6 6.38158C15.85 5.81325 15.0458 5.39173 14.1875 5.11704C13.3292 4.84235 12.5831 4.705 11.9495 4.705C9.60825 4.705 7.61471 5.65426 5.96883 7.55277C4.32294 9.45131 3.5 11.7509 3.5 14.4514C3.5 15.3042 3.60417 16.1664 3.8125 17.0378C4.02083 17.9093 4.31667 18.7144 4.7 19.4532H19.175C19.5417 18.7712 19.8333 17.9756 20.05 17.0662C20.2667 16.1569 20.375 15.2665 20.375 14.3951C20.375 13.5994 20.2708 12.7422 20.0625 11.8234C19.8542 10.9046 19.4833 10.0568 18.95 9.28008L19.925 7.80241C20.5583 8.8633 21.0333 9.92892 21.35 10.9993C21.6667 12.0696 21.8417 13.1447 21.875 14.2246C21.9083 15.3612 21.8083 16.4316 21.575 17.4357C21.3417 18.4397 21 19.368 20.55 20.2205C20.35 20.6562 20.1375 20.9214 19.9125 21.0161C19.6875 21.1109 19.4083 21.1582 19.075 21.1582H4.8C4.51667 21.1582 4.2375 21.0777 3.9625 20.9167C3.6875 20.7557 3.48333 20.5236 3.35 20.2205C2.91667 19.3111 2.58333 18.3876 2.35 17.4499C2.11667 16.5121 2 15.5128 2 14.4519C2 12.8795 2.2625 11.3971 2.7875 10.0047C3.3125 8.61229 4.025 7.39984 4.925 6.36737C5.825 5.3349 6.88067 4.51555 8.092 3.90933C9.30333 3.30311 10.5893 3 11.95 3Z" fill="#00FFFF"/>
</svg>
