<svg width="114" height="27" viewBox="0 0 114 27" fill="none" xmlns="http://www.w3.org/2000/svg">
<path d="M0.056 17.072C0.056 15.28 0.408 13.6907 1.112 12.304C1.83733 10.9173 2.808 9.85067 4.024 9.104C5.26133 8.35733 6.63733 7.984 8.152 7.984C9.47467 7.984 10.6267 8.25067 11.608 8.784C12.6107 9.31733 13.4107 9.98933 14.008 10.8V8.272H18.52V26H14.008V23.408C13.432 24.24 12.632 24.9333 11.608 25.488C10.6053 26.0213 9.44267 26.288 8.12 26.288C6.62667 26.288 5.26133 25.904 4.024 25.136C2.808 24.368 1.83733 23.2907 1.112 21.904C0.408 20.496 0.056 18.8853 0.056 17.072ZM14.008 17.136C14.008 16.048 13.7947 15.12 13.368 14.352C12.9413 13.5627 12.3653 12.9653 11.64 12.56C10.9147 12.1333 10.136 11.92 9.304 11.92C8.472 11.92 7.704 12.1227 7 12.528C6.296 12.9333 5.72 13.5307 5.272 14.32C4.84533 15.088 4.632 16.0053 4.632 17.072C4.632 18.1387 4.84533 19.0773 5.272 19.888C5.72 20.6773 6.296 21.2853 7 21.712C7.72533 22.1387 8.49333 22.352 9.304 22.352C10.136 22.352 10.9147 22.1493 11.64 21.744C12.3653 21.3173 12.9413 20.72 13.368 19.952C13.7947 19.1627 14.008 18.224 14.008 17.136ZM25.1675 6.16C24.3782 6.16 23.7168 5.91467 23.1835 5.424C22.6715 4.912 22.4155 4.28267 22.4155 3.536C22.4155 2.78933 22.6715 2.17067 23.1835 1.68C23.7168 1.168 24.3782 0.911999 25.1675 0.911999C25.9568 0.911999 26.6075 1.168 27.1195 1.68C27.6528 2.17067 27.9195 2.78933 27.9195 3.536C27.9195 4.28267 27.6528 4.912 27.1195 5.424C26.6075 5.91467 25.9568 6.16 25.1675 6.16ZM27.3755 8.272V26H22.8955V8.272H27.3755ZM36.2818 11.024C36.8578 10.0853 37.6044 9.34933 38.5218 8.816C39.4604 8.28267 40.5271 8.016 41.7218 8.016V12.72H40.5378C39.1298 12.72 38.0631 13.0507 37.3378 13.712C36.6338 14.3733 36.2818 15.5253 36.2818 17.168V26H31.8018V8.272H36.2818V11.024ZM49.9553 11.952V20.528C49.9553 21.1253 50.0939 21.5627 50.3713 21.84C50.6699 22.096 51.1606 22.224 51.8433 22.224H53.9233V26H51.1073C47.3313 26 45.4433 24.1653 45.4433 20.496V11.952H43.3313V8.272H45.4433V3.888H49.9553V8.272H53.9233V11.952H49.9553ZM73.6255 16.752C73.6255 17.392 73.5828 17.968 73.4975 18.48H60.5375C60.6442 19.76 61.0922 20.7627 61.8815 21.488C62.6708 22.2133 63.6415 22.576 64.7935 22.576C66.4575 22.576 67.6415 21.8613 68.3455 20.432H73.1775C72.6655 22.1387 71.6842 23.5467 70.2335 24.656C68.7828 25.744 67.0015 26.288 64.8895 26.288C63.1828 26.288 61.6468 25.9147 60.2815 25.168C58.9375 24.4 57.8815 23.3227 57.1135 21.936C56.3668 20.5493 55.9935 18.9493 55.9935 17.136C55.9935 15.3013 56.3668 13.6907 57.1135 12.304C57.8602 10.9173 58.9055 9.85067 60.2495 9.104C61.5935 8.35733 63.1402 7.984 64.8895 7.984C66.5748 7.984 68.0788 8.34667 69.4015 9.072C70.7455 9.79733 71.7802 10.832 72.5055 12.176C73.2522 13.4987 73.6255 15.024 73.6255 16.752ZM68.9855 15.472C68.9642 14.32 68.5482 13.4027 67.7375 12.72C66.9268 12.016 65.9348 11.664 64.7615 11.664C63.6522 11.664 62.7135 12.0053 61.9455 12.688C61.1988 13.3493 60.7402 14.2773 60.5695 15.472H68.9855ZM75.7435 17.136C75.7435 15.3013 76.1168 13.7013 76.8635 12.336C77.6102 10.9493 78.6448 9.88267 79.9675 9.136C81.2902 8.368 82.8048 7.984 84.5115 7.984C86.7088 7.984 88.5222 8.53867 89.9515 9.648C91.4022 10.736 92.3728 12.272 92.8635 14.256H88.0315C87.7755 13.488 87.3382 12.8907 86.7195 12.464C86.1222 12.016 85.3755 11.792 84.4795 11.792C83.1995 11.792 82.1862 12.2613 81.4395 13.2C80.6928 14.1173 80.3195 15.4293 80.3195 17.136C80.3195 18.8213 80.6928 20.1333 81.4395 21.072C82.1862 21.9893 83.1995 22.448 84.4795 22.448C86.2928 22.448 87.4768 21.6373 88.0315 20.016H92.8635C92.3728 21.936 91.4022 23.4613 89.9515 24.592C88.5008 25.7227 86.6875 26.288 84.5115 26.288C82.8048 26.288 81.2902 25.9147 79.9675 25.168C78.6448 24.4 77.6102 23.3333 76.8635 21.968C76.1168 20.5813 75.7435 18.9707 75.7435 17.136ZM106.13 8.016C107.474 8.016 108.668 8.31467 109.714 8.912C110.759 9.488 111.57 10.352 112.146 11.504C112.743 12.6347 113.042 14 113.042 15.6V26H108.562V16.208C108.562 14.8 108.21 13.7227 107.506 12.976C106.802 12.208 105.842 11.824 104.626 11.824C103.388 11.824 102.407 12.208 101.682 12.976C100.978 13.7227 100.626 14.8 100.626 16.208V26H96.1455V2.32H100.626V10.48C101.202 9.712 101.97 9.11467 102.93 8.688C103.89 8.24 104.956 8.016 106.13 8.016Z" fill="white"/>
</svg>
